REM DIRINDEX 1\2\4,1\2\5,1\2\6,1\3\7,1\3\8,1\3\9,1\3\10
REM DIRNAME folder01,folder02,folder03,folder04,folder05,folder06,folder07,folder08,folder09,folder10
TITLE ""
FILE "b_231.mp3" MP3
  TRACK 01 AUDIO
    TITLE "0:"
    INDEX 01 00:00:00
  TRACK 02 AUDIO
    TITLE "7:cjc057_10880"
    INDEX 01 00:00:09
  TRACK 03 AUDIO
    TITLE "0:"
    INDEX 01 00:01:42
  TRACK 04 AUDIO
    TITLE "8:cjc057_10881"
    INDEX 01 00:01:71
  TRACK 05 AUDIO
    TITLE "0:"
    INDEX 01 00:04:50
  TRACK 06 AUDIO
    TITLE "9:cjc057_10882"
    INDEX 01 00:05:14
  TRACK 07 AUDIO
    TITLE "0:"
    INDEX 01 00:08:73
  TRACK 08 AUDIO
    TITLE "7:cjc057_10883"
    INDEX 01 00:10:04
  TRACK 09 AUDIO
    TITLE "0:"
    INDEX 01 00:11:31
  TRACK 10 AUDIO
    TITLE "8:cjc057_10884"
    INDEX 01 00:11:62
  TRACK 11 AUDIO
    TITLE "0:"
    INDEX 01 00:14:56
  TRACK 12 AUDIO
    TITLE "9:cjc057_10885"
    INDEX 01 00:15:23
  TRACK 13 AUDIO
    TITLE "0:"
    INDEX 01 00:18:72
  TRACK 14 AUDIO
    TITLE "7:cjc057_10886"
    INDEX 01 00:20:00
  TRACK 15 AUDIO
    TITLE "0:"
    INDEX 01 00:21:35
  TRACK 16 AUDIO
    TITLE "8:cjc057_10887"
    INDEX 01 00:21:66
  TRACK 17 AUDIO
    TITLE "0:"
    INDEX 01 00:24:43
  TRACK 18 AUDIO
    TITLE "9:cjc057_10888"
    INDEX 01 00:25:05
  TRACK 19 AUDIO
    TITLE "0:"
    INDEX 01 00:29:05
  TRACK 20 AUDIO
    TITLE "7:cjc057_10889"
    INDEX 01 00:30:12
  TRACK 21 AUDIO
    TITLE "0:"
    INDEX 01 00:31:45
  TRACK 22 AUDIO
    TITLE "8:cjc057_10890"
    INDEX 01 00:32:00
  TRACK 23 AUDIO
    TITLE "0:"
    INDEX 01 00:34:47
  TRACK 24 AUDIO
    TITLE "9:cjc057_10891"
    INDEX 01 00:35:14
  TRACK 25 AUDIO
    TITLE "0:"
    INDEX 01 00:38:63
  TRACK 26 AUDIO
    TITLE "7:cjc057_10892"
    INDEX 01 00:39:68
  TRACK 27 AUDIO
    TITLE "0:"
    INDEX 01 00:41:20
  TRACK 28 AUDIO
    TITLE "8:cjc057_10893"
    INDEX 01 00:41:49
  TRACK 29 AUDIO
    TITLE "0:"
    INDEX 01 00:42:55
  TRACK 30 AUDIO
    TITLE "9:cjc057_10894"
    INDEX 01 00:43:23
  TRACK 31 AUDIO
    TITLE "0:"
    INDEX 01 00:48:53
  TRACK 32 AUDIO
    TITLE "7:cjc057_10895"
    INDEX 01 00:49:59
  TRACK 33 AUDIO
    TITLE "0:"
    INDEX 01 00:51:11
  TRACK 34 AUDIO
    TITLE "8:cjc057_10896"
    INDEX 01 00:51:42
  TRACK 35 AUDIO
    TITLE "0:"
    INDEX 01 00:52:63
  TRACK 36 AUDIO
    TITLE "9:cjc057_10897"
    INDEX 01 00:53:29
  TRACK 37 AUDIO
    TITLE "0:"
    INDEX 01 00:56:39
  TRACK 38 AUDIO
    TITLE "7:cjc057_10898"
    INDEX 01 00:57:45
  TRACK 39 AUDIO
    TITLE "0:"
    INDEX 01 00:58:60
  TRACK 40 AUDIO
    TITLE "8:cjc057_10899"
    INDEX 01 00:59:16
  TRACK 41 AUDIO
    TITLE "0:"
    INDEX 01 01:01:29
  TRACK 42 AUDIO
    TITLE "9:cjc057_10900"
    INDEX 01 01:01:70
  TRACK 43 AUDIO
    TITLE "0:"
    INDEX 01 01:06:32
  TRACK 44 AUDIO
    TITLE "7:cjc057_10901"
    INDEX 01 01:07:33
  TRACK 45 AUDIO
    TITLE "0:"
    INDEX 01 01:08:44
  TRACK 46 AUDIO
    TITLE "8:cjc057_10902"
    INDEX 01 01:08:74
  TRACK 47 AUDIO
    TITLE "0:"
    INDEX 01 01:11:21
  TRACK 48 AUDIO
    TITLE "9:cjc057_10903"
    INDEX 01 01:11:60
  TRACK 49 AUDIO
    TITLE "0:"
    INDEX 01 01:14:10
  TRACK 50 AUDIO
    TITLE "7:cjc057_10904"
    INDEX 01 01:15:17
  TRACK 51 AUDIO
    TITLE "0:"
    INDEX 01 01:16:26
  TRACK 52 AUDIO
    TITLE "8:cjc057_10905"
    INDEX 01 01:16:56
  TRACK 53 AUDIO
    TITLE "0:"
    INDEX 01 01:19:28
  TRACK 54 AUDIO
    TITLE "9:cjc057_10906"
    INDEX 01 01:19:66
  TRACK 55 AUDIO
    TITLE "0:"
    INDEX 01 01:22:60
  TRACK 56 AUDIO
    TITLE "7:cjc057_10907"
    INDEX 01 01:23:62
  TRACK 57 AUDIO
    TITLE "0:"
    INDEX 01 01:25:23
  TRACK 58 AUDIO
    TITLE "8:cjc057_10908"
    INDEX 01 01:25:53
  TRACK 59 AUDIO
    TITLE "0:"
    INDEX 01 01:27:55
  TRACK 60 AUDIO
    TITLE "9:cjc057_10909"
    INDEX 01 01:28:20
  TRACK 61 AUDIO
    TITLE "0:"
    INDEX 01 01:31:57
  TRACK 62 AUDIO
    TITLE "7:cjc057_10910"
    INDEX 01 01:32:62
  TRACK 63 AUDIO
    TITLE "0:"
    INDEX 01 01:33:72
  TRACK 64 AUDIO
    TITLE "8:cjc057_10911"
    INDEX 01 01:34:28
  TRACK 65 AUDIO
    TITLE "0:"
    INDEX 01 01:37:28
  TRACK 66 AUDIO
    TITLE "9:cjc057_10912"
    INDEX 01 01:37:68
  TRACK 67 AUDIO
    TITLE "0:"
    INDEX 01 01:42:31
  TRACK 68 AUDIO
    TITLE "7:cjc057_10913"
    INDEX 01 01:43:35
  TRACK 69 AUDIO
    TITLE "0:"
    INDEX 01 01:44:46
  TRACK 70 AUDIO
    TITLE "8:cjc057_10914"
    INDEX 01 01:45:00
  TRACK 71 AUDIO
    TITLE "0:"
    INDEX 01 01:48:16
  TRACK 72 AUDIO
    TITLE "9:cjc057_10915"
    INDEX 01 01:48:60
  TRACK 73 AUDIO
    TITLE "0:"
    INDEX 01 01:53:35
  TRACK 74 AUDIO
    TITLE "7:cjc057_10916"
    INDEX 01 01:54:37
  TRACK 75 AUDIO
    TITLE "0:"
    INDEX 01 01:55:46
  TRACK 76 AUDIO
    TITLE "8:cjc057_10917"
    INDEX 01 01:56:02
  TRACK 77 AUDIO
    TITLE "0:"
    INDEX 01 01:58:11
  TRACK 78 AUDIO
    TITLE "9:cjc057_10918"
    INDEX 01 01:58:48
  TRACK 79 AUDIO
    TITLE "0:"
    INDEX 01 02:02:18
  TRACK 80 AUDIO
    TITLE "7:cjc057_10919"
    INDEX 01 02:03:22
  TRACK 81 AUDIO
    TITLE "0:"
    INDEX 01 02:04:39
  TRACK 82 AUDIO
    TITLE "8:cjc057_10920"
    INDEX 01 02:04:70
  TRACK 83 AUDIO
    TITLE "0:"
    INDEX 01 02:07:06
  TRACK 84 AUDIO
    TITLE "9:cjc057_10921"
    INDEX 01 02:07:49
  TRACK 85 AUDIO
    TITLE "0:"
    INDEX 01 02:10:71
  TRACK 86 AUDIO
    TITLE "7:cjc057_10922"
    INDEX 01 02:12:03
  TRACK 87 AUDIO
    TITLE "0:"
    INDEX 01 02:13:32
  TRACK 88 AUDIO
    TITLE "8:cjc057_10923"
    INDEX 01 02:13:61
  TRACK 89 AUDIO
    TITLE "0:"
    INDEX 01 02:15:54
  TRACK 90 AUDIO
    TITLE "9:cjc057_10924"
    INDEX 01 02:16:21
  TRACK 91 AUDIO
    TITLE "0:"
    INDEX 01 02:20:61
